<?xml version="1.0" encoding="UTF-8" standalone="no"?>
<!DOCTYPE svg PUBLIC "-//W3C//DTD SVG 1.1//EN"
 "http://www.w3.org/Graphics/SVG/1.1/DTD/svg11.dtd">
<!-- Generated by graphviz version 12.2.0 (20241103.1931)
 -->
<!-- Title: G Pages: 1 -->
<svg width="841pt" height="906pt"
 viewBox="0.00 0.00 841.45 905.95" xmlns="http://www.w3.org/2000/svg" xmlns:xlink="http://www.w3.org/1999/xlink">
<g id="graph0" class="graph" transform="scale(1 1) rotate(0) translate(21.6 884.35)">
<title>G</title>
<polygon fill="#111111" stroke="none" points="-21.6,21.6 -21.6,-884.35 819.85,-884.35 819.85,21.6 -21.6,21.6"/>
<!-- config/sendEmail.js -->
<g id="node1" class="node">
<title>config/sendEmail.js</title>
<path fill="none" stroke="#c6c5fe" d="M633.71,-190.75C633.71,-190.75 516.54,-190.75 516.54,-190.75 512.58,-190.75 508.62,-186.79 508.62,-182.83 508.62,-182.83 508.62,-174.92 508.62,-174.92 508.62,-170.96 512.58,-167 516.54,-167 516.54,-167 633.71,-167 633.71,-167 637.67,-167 641.62,-170.96 641.62,-174.92 641.62,-174.92 641.62,-182.83 641.62,-182.83 641.62,-186.79 637.67,-190.75 633.71,-190.75"/>
<text text-anchor="middle" x="575.12" y="-173.45" font-family="Arial" font-size="14.00" fill="#c6c5fe">config/sendEmail.js</text>
</g>
<!-- utils/logger.js -->
<g id="node2" class="node">
<title>utils/logger.js</title>
<path fill="none" stroke="#cfffac" d="M790.33,-210.75C790.33,-210.75 712.17,-210.75 712.17,-210.75 708.21,-210.75 704.25,-206.79 704.25,-202.83 704.25,-202.83 704.25,-194.92 704.25,-194.92 704.25,-190.96 708.21,-187 712.17,-187 712.17,-187 790.33,-187 790.33,-187 794.29,-187 798.25,-190.96 798.25,-194.92 798.25,-194.92 798.25,-202.83 798.25,-202.83 798.25,-206.79 794.29,-210.75 790.33,-210.75"/>
<text text-anchor="middle" x="751.25" y="-193.45" font-family="Arial" font-size="14.00" fill="#cfffac">utils/logger.js</text>
</g>
<!-- config/sendEmail.js&#45;&gt;utils/logger.js -->
<g id="edge1" class="edge">
<title>config/sendEmail.js&#45;&gt;utils/logger.js</title>
<path fill="none" stroke="#757575" d="M641.95,-186.44C658.7,-188.36 676.56,-190.41 692.85,-192.28"/>
<polygon fill="#757575" stroke="#757575" points="692,-195.71 702.34,-193.37 692.8,-188.75 692,-195.71"/>
</g>
<!-- controllers/bookingController.js -->
<g id="node3" class="node">
<title>controllers/bookingController.js</title>
<path fill="none" stroke="#c6c5fe" d="M438.08,-148.75C438.08,-148.75 253.42,-148.75 253.42,-148.75 249.46,-148.75 245.5,-144.79 245.5,-140.83 245.5,-140.83 245.5,-132.92 245.5,-132.92 245.5,-128.96 249.46,-125 253.42,-125 253.42,-125 438.08,-125 438.08,-125 442.04,-125 446,-128.96 446,-132.92 446,-132.92 446,-140.83 446,-140.83 446,-144.79 442.04,-148.75 438.08,-148.75"/>
<text text-anchor="middle" x="345.75" y="-131.45" font-family="Arial" font-size="14.00" fill="#c6c5fe">controllers/bookingController.js</text>
</g>
<!-- controllers/bookingController.js&#45;&gt;config/sendEmail.js -->
<g id="edge2" class="edge">
<title>controllers/bookingController.js&#45;&gt;config/sendEmail.js</title>
<path fill="none" stroke="#757575" d="M413.74,-149.25C439.99,-154.1 470.26,-159.69 497.38,-164.7"/>
<polygon fill="#757575" stroke="#757575" points="496.44,-168.08 506.91,-166.46 497.71,-161.2 496.44,-168.08"/>
</g>
<!-- controllers/bookingController.js&#45;&gt;utils/logger.js -->
<g id="edge6" class="edge">
<title>controllers/bookingController.js&#45;&gt;utils/logger.js</title>
<path fill="none" stroke="#757575" d="M427.57,-149.2C434.01,-151.6 440.24,-154.46 446,-157.88 467.15,-170.42 459.66,-189.6 482,-199.88 549.29,-230.83 636.51,-222.93 692.92,-212.52"/>
<polygon fill="#757575" stroke="#757575" points="693.49,-215.97 702.64,-210.63 692.15,-209.1 693.49,-215.97"/>
</g>
<!-- models/BookingModel.js -->
<g id="node4" class="node">
<title>models/BookingModel.js</title>
<path fill="none" stroke="#cfffac" d="M649.08,-106.75C649.08,-106.75 501.17,-106.75 501.17,-106.75 497.21,-106.75 493.25,-102.79 493.25,-98.83 493.25,-98.83 493.25,-90.92 493.25,-90.92 493.25,-86.96 497.21,-83 501.17,-83 501.17,-83 649.08,-83 649.08,-83 653.04,-83 657,-86.96 657,-90.92 657,-90.92 657,-98.83 657,-98.83 657,-102.79 653.04,-106.75 649.08,-106.75"/>
<text text-anchor="middle" x="575.12" y="-89.45" font-family="Arial" font-size="14.00" fill="#cfffac">models/BookingModel.js</text>
</g>
<!-- controllers/bookingController.js&#45;&gt;models/BookingModel.js -->
<g id="edge3" class="edge">
<title>controllers/bookingController.js&#45;&gt;models/BookingModel.js</title>
<path fill="none" stroke="#757575" d="M413.74,-124.5C439.53,-119.74 469.2,-114.26 495.95,-109.31"/>
<polygon fill="#757575" stroke="#757575" points="496.53,-112.77 505.73,-107.51 495.26,-105.88 496.53,-112.77"/>
</g>
<!-- models/CamperModel.js -->
<g id="node5" class="node">
<title>models/CamperModel.js</title>
<path fill="none" stroke="#cfffac" d="M649.08,-64.75C649.08,-64.75 501.17,-64.75 501.17,-64.75 497.21,-64.75 493.25,-60.79 493.25,-56.83 493.25,-56.83 493.25,-48.92 493.25,-48.92 493.25,-44.96 497.21,-41 501.17,-41 501.17,-41 649.08,-41 649.08,-41 653.04,-41 657,-44.96 657,-48.92 657,-48.92 657,-56.83 657,-56.83 657,-60.79 653.04,-64.75 649.08,-64.75"/>
<text text-anchor="middle" x="575.12" y="-47.45" font-family="Arial" font-size="14.00" fill="#cfffac">models/CamperModel.js</text>
</g>
<!-- controllers/bookingController.js&#45;&gt;models/CamperModel.js -->
<g id="edge4" class="edge">
<title>controllers/bookingController.js&#45;&gt;models/CamperModel.js</title>
<path fill="none" stroke="#757575" d="M369.11,-124.66C395.45,-110.7 440.83,-87.98 482,-73.88 488.06,-71.8 494.42,-69.87 500.85,-68.08"/>
<polygon fill="#757575" stroke="#757575" points="501.44,-71.55 510.21,-65.61 499.65,-64.78 501.44,-71.55"/>
</g>
<!-- utils/emailTemplates.js -->
<g id="node6" class="node">
<title>utils/emailTemplates.js</title>
<path fill="none" stroke="#cfffac" d="M643.46,-148.75C643.46,-148.75 506.79,-148.75 506.79,-148.75 502.83,-148.75 498.88,-144.79 498.88,-140.83 498.88,-140.83 498.88,-132.92 498.88,-132.92 498.88,-128.96 502.83,-125 506.79,-125 506.79,-125 643.46,-125 643.46,-125 647.42,-125 651.38,-128.96 651.38,-132.92 651.38,-132.92 651.38,-140.83 651.38,-140.83 651.38,-144.79 647.42,-148.75 643.46,-148.75"/>
<text text-anchor="middle" x="575.12" y="-131.45" font-family="Arial" font-size="14.00" fill="#cfffac">utils/emailTemplates.js</text>
</g>
<!-- controllers/bookingController.js&#45;&gt;utils/emailTemplates.js -->
<g id="edge5" class="edge">
<title>controllers/bookingController.js&#45;&gt;utils/emailTemplates.js</title>
<path fill="none" stroke="#757575" d="M446.48,-136.88C459.95,-136.88 473.69,-136.88 486.93,-136.88"/>
<polygon fill="#757575" stroke="#757575" points="486.89,-140.38 496.89,-136.88 486.89,-133.38 486.89,-140.38"/>
</g>
<!-- controllers/campers.js -->
<g id="node7" class="node">
<title>controllers/campers.js</title>
<path fill="none" stroke="#c6c5fe" d="M411.83,-65.75C411.83,-65.75 279.67,-65.75 279.67,-65.75 275.71,-65.75 271.75,-61.79 271.75,-57.83 271.75,-57.83 271.75,-49.92 271.75,-49.92 271.75,-45.96 275.71,-42 279.67,-42 279.67,-42 411.83,-42 411.83,-42 415.79,-42 419.75,-45.96 419.75,-49.92 419.75,-49.92 419.75,-57.83 419.75,-57.83 419.75,-61.79 415.79,-65.75 411.83,-65.75"/>
<text text-anchor="middle" x="345.75" y="-48.45" font-family="Arial" font-size="14.00" fill="#c6c5fe">controllers/campers.js</text>
</g>
<!-- controllers/campers.js&#45;&gt;models/CamperModel.js -->
<g id="edge7" class="edge">
<title>controllers/campers.js&#45;&gt;models/CamperModel.js</title>
<path fill="none" stroke="#757575" d="M419.94,-53.55C439.55,-53.47 461.01,-53.37 481.51,-53.28"/>
<polygon fill="#757575" stroke="#757575" points="481.29,-56.78 491.28,-53.24 481.26,-49.78 481.29,-56.78"/>
</g>
<!-- db/initMongoDB.js -->
<g id="node8" class="node">
<title>db/initMongoDB.js</title>
<path fill="none" stroke="#cfffac" d="M400.96,-190.75C400.96,-190.75 290.54,-190.75 290.54,-190.75 286.58,-190.75 282.62,-186.79 282.62,-182.83 282.62,-182.83 282.62,-174.92 282.62,-174.92 282.62,-170.96 286.58,-167 290.54,-167 290.54,-167 400.96,-167 400.96,-167 404.92,-167 408.88,-170.96 408.88,-174.92 408.88,-174.92 408.88,-182.83 408.88,-182.83 408.88,-186.79 404.92,-190.75 400.96,-190.75"/>
<text text-anchor="middle" x="345.75" y="-173.45" font-family="Arial" font-size="14.00" fill="#cfffac">db/initMongoDB.js</text>
</g>
<!-- index.js -->
<g id="node9" class="node">
<title>index.js</title>
<path fill="none" stroke="#c6c5fe" d="M127.71,-190.75C127.71,-190.75 81.79,-190.75 81.79,-190.75 77.83,-190.75 73.88,-186.79 73.88,-182.83 73.88,-182.83 73.88,-174.92 73.88,-174.92 73.88,-170.96 77.83,-167 81.79,-167 81.79,-167 127.71,-167 127.71,-167 131.67,-167 135.62,-170.96 135.62,-174.92 135.62,-174.92 135.62,-182.83 135.62,-182.83 135.62,-186.79 131.67,-190.75 127.71,-190.75"/>
<text text-anchor="middle" x="104.75" y="-173.45" font-family="Arial" font-size="14.00" fill="#c6c5fe">index.js</text>
</g>
<!-- index.js&#45;&gt;db/initMongoDB.js -->
<g id="edge8" class="edge">
<title>index.js&#45;&gt;db/initMongoDB.js</title>
<path fill="none" stroke="#757575" d="M136.02,-178.88C169.83,-178.88 225.79,-178.88 271.26,-178.88"/>
<polygon fill="#757575" stroke="#757575" points="271.06,-182.38 281.06,-178.88 271.06,-175.38 271.06,-182.38"/>
</g>
<!-- middlewares/auth.middleware.js -->
<g id="node10" class="node">
<title>middlewares/auth.middleware.js</title>
<path fill="none" stroke="#cfffac" d="M201.58,-232.75C201.58,-232.75 7.92,-232.75 7.92,-232.75 3.96,-232.75 0,-228.79 0,-224.83 0,-224.83 0,-216.92 0,-216.92 0,-212.96 3.96,-209 7.92,-209 7.92,-209 201.58,-209 201.58,-209 205.54,-209 209.5,-212.96 209.5,-216.92 209.5,-216.92 209.5,-224.83 209.5,-224.83 209.5,-228.79 205.54,-232.75 201.58,-232.75"/>
<text text-anchor="middle" x="104.75" y="-215.45" font-family="Arial" font-size="14.00" fill="#cfffac">middlewares/auth.middleware.js</text>
</g>
<!-- models/ReviewModel.js -->
<g id="node11" class="node">
<title>models/ReviewModel.js</title>
<path fill="none" stroke="#cfffac" d="M176.46,-274.75C176.46,-274.75 33.04,-274.75 33.04,-274.75 29.08,-274.75 25.12,-270.79 25.12,-266.83 25.12,-266.83 25.12,-258.92 25.12,-258.92 25.12,-254.96 29.08,-251 33.04,-251 33.04,-251 176.46,-251 176.46,-251 180.42,-251 184.38,-254.96 184.38,-258.92 184.38,-258.92 184.38,-266.83 184.38,-266.83 184.38,-270.79 180.42,-274.75 176.46,-274.75"/>
<text text-anchor="middle" x="104.75" y="-257.45" font-family="Arial" font-size="14.00" fill="#cfffac">models/ReviewModel.js</text>
</g>
<!-- redux/auth/operations.js -->
<g id="node12" class="node">
<title>redux/auth/operations.js</title>
<path fill="none" stroke="#cfffac" d="M176.83,-316.75C176.83,-316.75 32.67,-316.75 32.67,-316.75 28.71,-316.75 24.75,-312.79 24.75,-308.83 24.75,-308.83 24.75,-300.92 24.75,-300.92 24.75,-296.96 28.71,-293 32.67,-293 32.67,-293 176.83,-293 176.83,-293 180.79,-293 184.75,-296.96 184.75,-300.92 184.75,-300.92 184.75,-308.83 184.75,-308.83 184.75,-312.79 180.79,-316.75 176.83,-316.75"/>
<text text-anchor="middle" x="104.75" y="-299.45" font-family="Arial" font-size="14.00" fill="#cfffac">redux/auth/operations.js</text>
</g>
<!-- redux/auth/selectors.js -->
<g id="node13" class="node">
<title>redux/auth/selectors.js</title>
<path fill="none" stroke="#cfffac" d="M172.33,-358.75C172.33,-358.75 37.17,-358.75 37.17,-358.75 33.21,-358.75 29.25,-354.79 29.25,-350.83 29.25,-350.83 29.25,-342.92 29.25,-342.92 29.25,-338.96 33.21,-335 37.17,-335 37.17,-335 172.33,-335 172.33,-335 176.29,-335 180.25,-338.96 180.25,-342.92 180.25,-342.92 180.25,-350.83 180.25,-350.83 180.25,-354.79 176.29,-358.75 172.33,-358.75"/>
<text text-anchor="middle" x="104.75" y="-341.45" font-family="Arial" font-size="14.00" fill="#cfffac">redux/auth/selectors.js</text>
</g>
<!-- redux/auth/slice.js -->
<g id="node14" class="node">
<title>redux/auth/slice.js</title>
<path fill="none" stroke="#cfffac" d="M158.83,-400.75C158.83,-400.75 50.67,-400.75 50.67,-400.75 46.71,-400.75 42.75,-396.79 42.75,-392.83 42.75,-392.83 42.75,-384.92 42.75,-384.92 42.75,-380.96 46.71,-377 50.67,-377 50.67,-377 158.83,-377 158.83,-377 162.79,-377 166.75,-380.96 166.75,-384.92 166.75,-384.92 166.75,-392.83 166.75,-392.83 166.75,-396.79 162.79,-400.75 158.83,-400.75"/>
<text text-anchor="middle" x="104.75" y="-383.45" font-family="Arial" font-size="14.00" fill="#cfffac">redux/auth/slice.js</text>
</g>
<!-- redux/campers/operations.js -->
<g id="node15" class="node">
<title>redux/campers/operations.js</title>
<path fill="none" stroke="#cfffac" d="M660.33,-442.75C660.33,-442.75 489.92,-442.75 489.92,-442.75 485.96,-442.75 482,-438.79 482,-434.83 482,-434.83 482,-426.92 482,-426.92 482,-422.96 485.96,-419 489.92,-419 489.92,-419 660.33,-419 660.33,-419 664.29,-419 668.25,-422.96 668.25,-426.92 668.25,-426.92 668.25,-434.83 668.25,-434.83 668.25,-438.79 664.29,-442.75 660.33,-442.75"/>
<text text-anchor="middle" x="575.12" y="-425.45" font-family="Arial" font-size="14.00" fill="#cfffac">redux/campers/operations.js</text>
</g>
<!-- redux/campers/selectors.js -->
<g id="node16" class="node">
<title>redux/campers/selectors.js</title>
<path fill="none" stroke="#cfffac" d="M185.46,-484.75C185.46,-484.75 24.04,-484.75 24.04,-484.75 20.08,-484.75 16.12,-480.79 16.12,-476.83 16.12,-476.83 16.12,-468.92 16.12,-468.92 16.12,-464.96 20.08,-461 24.04,-461 24.04,-461 185.46,-461 185.46,-461 189.42,-461 193.38,-464.96 193.38,-468.92 193.38,-468.92 193.38,-476.83 193.38,-476.83 193.38,-480.79 189.42,-484.75 185.46,-484.75"/>
<text text-anchor="middle" x="104.75" y="-467.45" font-family="Arial" font-size="14.00" fill="#cfffac">redux/campers/selectors.js</text>
</g>
<!-- redux/campers/slice.js -->
<g id="node17" class="node">
<title>redux/campers/slice.js</title>
<path fill="none" stroke="#c6c5fe" d="M412.96,-442.75C412.96,-442.75 278.54,-442.75 278.54,-442.75 274.58,-442.75 270.62,-438.79 270.62,-434.83 270.62,-434.83 270.62,-426.92 270.62,-426.92 270.62,-422.96 274.58,-419 278.54,-419 278.54,-419 412.96,-419 412.96,-419 416.92,-419 420.88,-422.96 420.88,-426.92 420.88,-426.92 420.88,-434.83 420.88,-434.83 420.88,-438.79 416.92,-442.75 412.96,-442.75"/>
<text text-anchor="middle" x="345.75" y="-425.45" font-family="Arial" font-size="14.00" fill="#c6c5fe">redux/campers/slice.js</text>
</g>
<!-- redux/campers/slice.js&#45;&gt;redux/campers/operations.js -->
<g id="edge9" class="edge">
<title>redux/campers/slice.js&#45;&gt;redux/campers/operations.js</title>
<path fill="none" stroke="#757575" d="M421.2,-430.88C436.88,-430.88 453.7,-430.88 470.23,-430.88"/>
<polygon fill="#757575" stroke="#757575" points="470.1,-434.38 480.1,-430.88 470.1,-427.38 470.1,-434.38"/>
</g>
<!-- redux/contacts/operations.js -->
<g id="node18" class="node">
<title>redux/contacts/operations.js</title>
<path fill="none" stroke="#cfffac" d="M188.83,-526.75C188.83,-526.75 20.67,-526.75 20.67,-526.75 16.71,-526.75 12.75,-522.79 12.75,-518.83 12.75,-518.83 12.75,-510.92 12.75,-510.92 12.75,-506.96 16.71,-503 20.67,-503 20.67,-503 188.83,-503 188.83,-503 192.79,-503 196.75,-506.96 196.75,-510.92 196.75,-510.92 196.75,-518.83 196.75,-518.83 196.75,-522.79 192.79,-526.75 188.83,-526.75"/>
<text text-anchor="middle" x="104.75" y="-509.45" font-family="Arial" font-size="14.00" fill="#cfffac">redux/contacts/operations.js</text>
</g>
<!-- redux/contacts/selectors.js -->
<g id="node19" class="node">
<title>redux/contacts/selectors.js</title>
<path fill="none" stroke="#cfffac" d="M184.33,-568.75C184.33,-568.75 25.17,-568.75 25.17,-568.75 21.21,-568.75 17.25,-564.79 17.25,-560.83 17.25,-560.83 17.25,-552.92 17.25,-552.92 17.25,-548.96 21.21,-545 25.17,-545 25.17,-545 184.33,-545 184.33,-545 188.29,-545 192.25,-548.96 192.25,-552.92 192.25,-552.92 192.25,-560.83 192.25,-560.83 192.25,-564.79 188.29,-568.75 184.33,-568.75"/>
<text text-anchor="middle" x="104.75" y="-551.45" font-family="Arial" font-size="14.00" fill="#cfffac">redux/contacts/selectors.js</text>
</g>
<!-- redux/contacts/slice.js -->
<g id="node20" class="node">
<title>redux/contacts/slice.js</title>
<path fill="none" stroke="#cfffac" d="M170.83,-610.75C170.83,-610.75 38.67,-610.75 38.67,-610.75 34.71,-610.75 30.75,-606.79 30.75,-602.83 30.75,-602.83 30.75,-594.92 30.75,-594.92 30.75,-590.96 34.71,-587 38.67,-587 38.67,-587 170.83,-587 170.83,-587 174.79,-587 178.75,-590.96 178.75,-594.92 178.75,-594.92 178.75,-602.83 178.75,-602.83 178.75,-606.79 174.79,-610.75 170.83,-610.75"/>
<text text-anchor="middle" x="104.75" y="-593.45" font-family="Arial" font-size="14.00" fill="#cfffac">redux/contacts/slice.js</text>
</g>
<!-- redux/filters/selectors.js -->
<g id="node21" class="node">
<title>redux/filters/selectors.js</title>
<path fill="none" stroke="#cfffac" d="M175.33,-652.75C175.33,-652.75 34.17,-652.75 34.17,-652.75 30.21,-652.75 26.25,-648.79 26.25,-644.83 26.25,-644.83 26.25,-636.92 26.25,-636.92 26.25,-632.96 30.21,-629 34.17,-629 34.17,-629 175.33,-629 175.33,-629 179.29,-629 183.25,-632.96 183.25,-636.92 183.25,-636.92 183.25,-644.83 183.25,-644.83 183.25,-648.79 179.29,-652.75 175.33,-652.75"/>
<text text-anchor="middle" x="104.75" y="-635.45" font-family="Arial" font-size="14.00" fill="#cfffac">redux/filters/selectors.js</text>
</g>
<!-- redux/filters/slice.js -->
<g id="node22" class="node">
<title>redux/filters/slice.js</title>
<path fill="none" stroke="#cfffac" d="M161.83,-694.75C161.83,-694.75 47.67,-694.75 47.67,-694.75 43.71,-694.75 39.75,-690.79 39.75,-686.83 39.75,-686.83 39.75,-678.92 39.75,-678.92 39.75,-674.96 43.71,-671 47.67,-671 47.67,-671 161.83,-671 161.83,-671 165.79,-671 169.75,-674.96 169.75,-678.92 169.75,-678.92 169.75,-686.83 169.75,-686.83 169.75,-690.79 165.79,-694.75 161.83,-694.75"/>
<text text-anchor="middle" x="104.75" y="-677.45" font-family="Arial" font-size="14.00" fill="#cfffac">redux/filters/slice.js</text>
</g>
<!-- redux/store.js -->
<g id="node23" class="node">
<title>redux/store.js</title>
<path fill="none" stroke="#c6c5fe" d="M145.33,-442.75C145.33,-442.75 64.17,-442.75 64.17,-442.75 60.21,-442.75 56.25,-438.79 56.25,-434.83 56.25,-434.83 56.25,-426.92 56.25,-426.92 56.25,-422.96 60.21,-419 64.17,-419 64.17,-419 145.33,-419 145.33,-419 149.29,-419 153.25,-422.96 153.25,-426.92 153.25,-426.92 153.25,-434.83 153.25,-434.83 153.25,-438.79 149.29,-442.75 145.33,-442.75"/>
<text text-anchor="middle" x="104.75" y="-425.45" font-family="Arial" font-size="14.00" fill="#c6c5fe">redux/store.js</text>
</g>
<!-- redux/store.js&#45;&gt;redux/campers/slice.js -->
<g id="edge10" class="edge">
<title>redux/store.js&#45;&gt;redux/campers/slice.js</title>
<path fill="none" stroke="#757575" d="M153.54,-430.88C183.66,-430.88 223.41,-430.88 258.87,-430.88"/>
<polygon fill="#757575" stroke="#757575" points="258.7,-434.38 268.7,-430.88 258.7,-427.38 258.7,-434.38"/>
</g>
<!-- routes/bookingRouters.js -->
<g id="node24" class="node">
<title>routes/bookingRouters.js</title>
<path fill="none" stroke="#c6c5fe" d="M179.46,-128.75C179.46,-128.75 30.04,-128.75 30.04,-128.75 26.08,-128.75 22.12,-124.79 22.12,-120.83 22.12,-120.83 22.12,-112.92 22.12,-112.92 22.12,-108.96 26.08,-105 30.04,-105 30.04,-105 179.46,-105 179.46,-105 183.42,-105 187.38,-108.96 187.38,-112.92 187.38,-112.92 187.38,-120.83 187.38,-120.83 187.38,-124.79 183.42,-128.75 179.46,-128.75"/>
<text text-anchor="middle" x="104.75" y="-111.45" font-family="Arial" font-size="14.00" fill="#c6c5fe">routes/bookingRouters.js</text>
</g>
<!-- routes/bookingRouters.js&#45;&gt;controllers/bookingController.js -->
<g id="edge11" class="edge">
<title>routes/bookingRouters.js&#45;&gt;controllers/bookingController.js</title>
<path fill="none" stroke="#757575" d="M187.67,-123.73C202.56,-124.98 218.33,-126.3 233.89,-127.6"/>
<polygon fill="#757575" stroke="#757575" points="233.42,-131.07 243.67,-128.42 234,-124.09 233.42,-131.07"/>
</g>
<!-- routes/bookingRouters.js&#45;&gt;models/BookingModel.js -->
<g id="edge12" class="edge">
<title>routes/bookingRouters.js&#45;&gt;models/BookingModel.js</title>
<path fill="none" stroke="#757575" d="M187.87,-113.02C269.98,-109.16 396.02,-103.24 481.61,-99.22"/>
<polygon fill="#757575" stroke="#757575" points="481.55,-102.73 491.37,-98.76 481.22,-95.74 481.55,-102.73"/>
</g>
<!-- routes/campersRouters.js -->
<g id="node25" class="node">
<title>routes/campersRouters.js</title>
<path fill="none" stroke="#c6c5fe" d="M182.08,-65.75C182.08,-65.75 27.42,-65.75 27.42,-65.75 23.46,-65.75 19.5,-61.79 19.5,-57.83 19.5,-57.83 19.5,-49.92 19.5,-49.92 19.5,-45.96 23.46,-42 27.42,-42 27.42,-42 182.08,-42 182.08,-42 186.04,-42 190,-45.96 190,-49.92 190,-49.92 190,-57.83 190,-57.83 190,-61.79 186.04,-65.75 182.08,-65.75"/>
<text text-anchor="middle" x="104.75" y="-48.45" font-family="Arial" font-size="14.00" fill="#c6c5fe">routes/campersRouters.js</text>
</g>
<!-- routes/campersRouters.js&#45;&gt;controllers/campers.js -->
<g id="edge13" class="edge">
<title>routes/campersRouters.js&#45;&gt;controllers/campers.js</title>
<path fill="none" stroke="#757575" d="M190.35,-53.88C212.98,-53.88 237.44,-53.88 260.07,-53.88"/>
<polygon fill="#757575" stroke="#757575" points="259.86,-57.38 269.86,-53.88 259.86,-50.38 259.86,-57.38"/>
</g>
<!-- scripts/updateCampersId.js -->
<g id="node26" class="node">
<title>scripts/updateCampersId.js</title>
<path fill="none" stroke="#cfffac" d="M186.96,-736.75C186.96,-736.75 22.54,-736.75 22.54,-736.75 18.58,-736.75 14.62,-732.79 14.62,-728.83 14.62,-728.83 14.62,-720.92 14.62,-720.92 14.62,-716.96 18.58,-713 22.54,-713 22.54,-713 186.96,-713 186.96,-713 190.92,-713 194.88,-716.96 194.88,-720.92 194.88,-720.92 194.88,-728.83 194.88,-728.83 194.88,-732.79 190.92,-736.75 186.96,-736.75"/>
<text text-anchor="middle" x="104.75" y="-719.45" font-family="Arial" font-size="14.00" fill="#cfffac">scripts/updateCampersId.js</text>
</g>
<!-- seeders/seedDatabase.js -->
<g id="node27" class="node">
<title>seeders/seedDatabase.js</title>
<path fill="none" stroke="#c6c5fe" d="M421.96,-23.75C421.96,-23.75 269.54,-23.75 269.54,-23.75 265.58,-23.75 261.62,-19.79 261.62,-15.83 261.62,-15.83 261.62,-7.92 261.62,-7.92 261.62,-3.96 265.58,0 269.54,0 269.54,0 421.96,0 421.96,0 425.92,0 429.88,-3.96 429.88,-7.92 429.88,-7.92 429.88,-15.83 429.88,-15.83 429.88,-19.79 425.92,-23.75 421.96,-23.75"/>
<text text-anchor="middle" x="345.75" y="-6.45" font-family="Arial" font-size="14.00" fill="#c6c5fe">seeders/seedDatabase.js</text>
</g>
<!-- seeders/seedDatabase.js&#45;&gt;models/CamperModel.js -->
<g id="edge14" class="edge">
<title>seeders/seedDatabase.js&#45;&gt;models/CamperModel.js</title>
<path fill="none" stroke="#757575" d="M415.28,-24.23C440.22,-28.73 468.63,-33.85 494.46,-38.51"/>
<polygon fill="#757575" stroke="#757575" points="493.79,-41.94 504.25,-40.27 495.03,-35.06 493.79,-41.94"/>
</g>
<!-- services/api.js -->
<g id="node28" class="node">
<title>services/api.js</title>
<path fill="none" stroke="#cfffac" d="M147.21,-778.75C147.21,-778.75 62.29,-778.75 62.29,-778.75 58.33,-778.75 54.38,-774.79 54.38,-770.83 54.38,-770.83 54.38,-762.92 54.38,-762.92 54.38,-758.96 58.33,-755 62.29,-755 62.29,-755 147.21,-755 147.21,-755 151.17,-755 155.12,-758.96 155.12,-762.92 155.12,-762.92 155.12,-770.83 155.12,-770.83 155.12,-774.79 151.17,-778.75 147.21,-778.75"/>
<text text-anchor="middle" x="104.75" y="-761.45" font-family="Arial" font-size="14.00" fill="#cfffac">services/api.js</text>
</g>
<!-- setupProxy.js -->
<g id="node29" class="node">
<title>setupProxy.js</title>
<path fill="none" stroke="#cfffac" d="M144.96,-820.75C144.96,-820.75 64.54,-820.75 64.54,-820.75 60.58,-820.75 56.62,-816.79 56.62,-812.83 56.62,-812.83 56.62,-804.92 56.62,-804.92 56.62,-800.96 60.58,-797 64.54,-797 64.54,-797 144.96,-797 144.96,-797 148.92,-797 152.88,-800.96 152.88,-804.92 152.88,-804.92 152.88,-812.83 152.88,-812.83 152.88,-816.79 148.92,-820.75 144.96,-820.75"/>
<text text-anchor="middle" x="104.75" y="-803.45" font-family="Arial" font-size="14.00" fill="#cfffac">setupProxy.js</text>
</g>
<!-- utils/useInputChange.js -->
<g id="node30" class="node">
<title>utils/useInputChange.js</title>
<path fill="none" stroke="#cfffac" d="M174.96,-862.75C174.96,-862.75 34.54,-862.75 34.54,-862.75 30.58,-862.75 26.62,-858.79 26.62,-854.83 26.62,-854.83 26.62,-846.92 26.62,-846.92 26.62,-842.96 30.58,-839 34.54,-839 34.54,-839 174.96,-839 174.96,-839 178.92,-839 182.88,-842.96 182.88,-846.92 182.88,-846.92 182.88,-854.83 182.88,-854.83 182.88,-858.79 178.92,-862.75 174.96,-862.75"/>
<text text-anchor="middle" x="104.75" y="-845.45" font-family="Arial" font-size="14.00" fill="#cfffac">utils/useInputChange.js</text>
</g>
</g>
</svg>
