

<svg xmlns="http://www.w3.org/2000/svg" viewBox="0 0 256 256">
  <rect width="256" height="256" fill="none"/>
  <path d="M208,80H40a8,8,0,0,0-8,8v88a72,72,0,0,0,72,72h48a72,72,0,0,0,72-72V128A48,48,0,0,0,208,80Zm32,88a56,56,0,0,1-56,56H104a56,56,0,0,1-56-56V96H208a32,32,0,0,1,32,32Z" fill="#d4a373"/>
  <path d="M80,32a8,8,0,0,1,8-8,24,24,0,0,0,24,24,8,8,0,0,1,0,16A40,40,0,0,1,80,32Z" fill="#f4f1ea"/>
  <path d="M128,32a8,8,0,0,1,8-8,24,24,0,0,0,24,24,8,8,0,0,1,0,16A40,40,0,0,1,128,32Z" fill="#f4f1ea"/>
</svg>


